<?xml version="1.0" encoding="UTF-8" standalone="no"?>
<!DOCTYPE svg PUBLIC "-//W3C//DTD SVG 1.1//EN"
 "http://www.w3.org/Graphics/SVG/1.1/DTD/svg11.dtd">
<!-- Generated by graphviz version 2.38.0 (20140413.2041)
 -->
<!-- Title: %3 Pages: 1 -->
<svg width="262pt" height="476pt"
 viewBox="0.00 0.00 262.35 476.00" xmlns="http://www.w3.org/2000/svg" xmlns:xlink="http://www.w3.org/1999/xlink">
<g id="graph0" class="graph" transform="scale(1 1) rotate(0) translate(4 472)">
<title>%3</title>
<polygon fill="white" stroke="none" points="-4,4 -4,-472 258.345,-472 258.345,4 -4,4"/>
<!-- y -->
<g id="node1" class="node"><title>y</title>
<ellipse fill="none" stroke="black" cx="60" cy="-18" rx="27" ry="18"/>
<text text-anchor="middle" x="60" y="-14.3" font-family="Times,serif" font-size="14.00">y</text>
</g>
<!-- Add (Op 0) -->
<g id="node2" class="node"><title>Add (Op 0)</title>
<ellipse fill="none" stroke="black" cx="60" cy="-90" rx="51.9908" ry="18"/>
<text text-anchor="middle" x="60" y="-86.3" font-family="Times,serif" font-size="14.00">Add (Op 0)</text>
</g>
<!-- Add (Op 0)&#45;&gt;y -->
<g id="edge1" class="edge"><title>Add (Op 0)&#45;&gt;y</title>
<path fill="none" stroke="black" d="M60,-71.6966C60,-63.9827 60,-54.7125 60,-46.1124"/>
<polygon fill="black" stroke="black" points="63.5001,-46.1043 60,-36.1043 56.5001,-46.1044 63.5001,-46.1043"/>
</g>
<!-- h1 -->
<g id="node3" class="node"><title>h1</title>
<ellipse fill="none" stroke="black" cx="94" cy="-162" rx="27" ry="18"/>
<text text-anchor="middle" x="94" y="-158.3" font-family="Times,serif" font-size="14.00">h1</text>
</g>
<!-- h1&#45;&gt;Add (Op 0) -->
<g id="edge2" class="edge"><title>h1&#45;&gt;Add (Op 0)</title>
<path fill="none" stroke="black" d="M86.1143,-144.765C82.1541,-136.611 77.257,-126.529 72.7775,-117.307"/>
<polygon fill="black" stroke="black" points="75.8347,-115.59 68.3173,-108.124 69.5381,-118.648 75.8347,-115.59"/>
</g>
<!-- x -->
<g id="node4" class="node"><title>x</title>
<ellipse fill="none" stroke="black" cx="27" cy="-450" rx="27" ry="18"/>
<text text-anchor="middle" x="27" y="-446.3" font-family="Times,serif" font-size="14.00">x</text>
</g>
<!-- x&#45;&gt;Add (Op 0) -->
<g id="edge3" class="edge"><title>x&#45;&gt;Add (Op 0)</title>
<path fill="none" stroke="black" d="M27,-431.951C27,-405.292 27,-352.115 27,-307 27,-307 27,-307 27,-233 27,-191.974 40.2302,-145.972 49.9364,-117.743"/>
<polygon fill="black" stroke="black" points="53.2808,-118.784 53.322,-108.189 46.6828,-116.446 53.2808,-118.784"/>
</g>
<!-- Add (Op 2) -->
<g id="node8" class="node"><title>Add (Op 2)</title>
<ellipse fill="none" stroke="black" cx="107" cy="-378" rx="51.9908" ry="18"/>
<text text-anchor="middle" x="107" y="-374.3" font-family="Times,serif" font-size="14.00">Add (Op 2)</text>
</g>
<!-- x&#45;&gt;Add (Op 2) -->
<g id="edge4" class="edge"><title>x&#45;&gt;Add (Op 2)</title>
<path fill="none" stroke="black" d="M42.8054,-435.17C53.7412,-425.601 68.5416,-412.651 81.1752,-401.597"/>
<polygon fill="black" stroke="black" points="83.4865,-404.225 88.7075,-395.006 78.8769,-398.957 83.4865,-404.225"/>
</g>
<!-- Mul (Op 1) -->
<g id="node5" class="node"><title>Mul (Op 1)</title>
<ellipse fill="none" stroke="black" cx="107" cy="-234" rx="51.9908" ry="18"/>
<text text-anchor="middle" x="107" y="-230.3" font-family="Times,serif" font-size="14.00">Mul (Op 1)</text>
</g>
<!-- Mul (Op 1)&#45;&gt;h1 -->
<g id="edge5" class="edge"><title>Mul (Op 1)&#45;&gt;h1</title>
<path fill="none" stroke="black" d="M103.787,-215.697C102.354,-207.983 100.632,-198.712 99.0352,-190.112"/>
<polygon fill="black" stroke="black" points="102.444,-189.297 97.1765,-180.104 95.5614,-190.575 102.444,-189.297"/>
</g>
<!-- h2 -->
<g id="node6" class="node"><title>h2</title>
<ellipse fill="none" stroke="black" cx="107" cy="-306" rx="27" ry="18"/>
<text text-anchor="middle" x="107" y="-302.3" font-family="Times,serif" font-size="14.00">h2</text>
</g>
<!-- h2&#45;&gt;Mul (Op 1) -->
<g id="edge6" class="edge"><title>h2&#45;&gt;Mul (Op 1)</title>
<path fill="none" stroke="black" d="M107,-287.697C107,-279.983 107,-270.712 107,-262.112"/>
<polygon fill="black" stroke="black" points="110.5,-262.104 107,-252.104 103.5,-262.104 110.5,-262.104"/>
</g>
<!-- constant 20 -->
<g id="node7" class="node"><title>constant 20</title>
<ellipse fill="none" stroke="black" cx="203" cy="-306" rx="51.1914" ry="18"/>
<text text-anchor="middle" x="203" y="-302.3" font-family="Times,serif" font-size="14.00">constant 20</text>
</g>
<!-- constant 20&#45;&gt;Mul (Op 1) -->
<g id="edge7" class="edge"><title>constant 20&#45;&gt;Mul (Op 1)</title>
<path fill="none" stroke="black" d="M181.694,-289.465C168.396,-279.768 151.088,-267.148 136.483,-256.498"/>
<polygon fill="black" stroke="black" points="138.388,-253.556 128.246,-250.492 134.264,-259.212 138.388,-253.556"/>
</g>
<!-- Add (Op 2)&#45;&gt;h2 -->
<g id="edge8" class="edge"><title>Add (Op 2)&#45;&gt;h2</title>
<path fill="none" stroke="black" d="M107,-359.697C107,-351.983 107,-342.712 107,-334.112"/>
<polygon fill="black" stroke="black" points="110.5,-334.104 107,-324.104 103.5,-334.104 110.5,-334.104"/>
</g>
<!-- constant 10.0 -->
<g id="node9" class="node"><title>constant 10.0</title>
<ellipse fill="none" stroke="black" cx="130" cy="-450" rx="57.6901" ry="18"/>
<text text-anchor="middle" x="130" y="-446.3" font-family="Times,serif" font-size="14.00">constant 10.0</text>
</g>
<!-- constant 10.0&#45;&gt;Add (Op 2) -->
<g id="edge9" class="edge"><title>constant 10.0&#45;&gt;Add (Op 2)</title>
<path fill="none" stroke="black" d="M124.432,-432.055C121.844,-424.176 118.703,-414.617 115.804,-405.794"/>
<polygon fill="black" stroke="black" points="119.123,-404.683 112.676,-396.275 112.473,-406.868 119.123,-404.683"/>
</g>
</g>
</svg>
